<?xml version="1.0" encoding="UTF-8" standalone="no"?>
<svg
   xmlns:dc="http://purl.org/dc/elements/1.1/"
   xmlns:cc="http://creativecommons.org/ns#"
   xmlns:rdf="http://www.w3.org/1999/02/22-rdf-syntax-ns#"
   xmlns:svg="http://www.w3.org/2000/svg"
   xmlns="http://www.w3.org/2000/svg"
   xmlns:sodipodi="http://sodipodi.sourceforge.net/DTD/sodipodi-0.dtd"
   xmlns:inkscape="http://www.inkscape.org/namespaces/inkscape"
   enable-background="new 0 0 411.611 523.253"
   height="600"
   overflow="visible"
   space="preserve"
   viewBox="0 0 600 600"
   width="600"
   id="svg2914"
   version="1.1"
   inkscape:version="0.47pre1 r21720"
   sodipodi:docname="Anonymous_Right_Footprint.svg"
   inkscape:output_extension="org.inkscape.output.svg.inkscape"
   style="overflow:visible"
   inkscape:export-filename="/Users/ryanshaw/Desktop/footprint.png"
   inkscape:export-xdpi="3.5999999"
   inkscape:export-ydpi="3.5999999">
  <defs
     id="defs2934">
    <inkscape:perspective
       sodipodi:type="inkscape:persp3d"
       inkscape:vp_x="0 : 261.5 : 1"
       inkscape:vp_y="0 : 1000 : 0"
       inkscape:vp_z="412 : 261.5 : 1"
       inkscape:persp3d-origin="206 : 174.33333 : 1"
       id="perspective2936" />
  </defs>
  <sodipodi:namedview
     pagecolor="#ffffff"
     bordercolor="#666666"
     borderopacity="1"
     objecttolerance="10"
     gridtolerance="10"
     guidetolerance="10"
     inkscape:pageopacity="0"
     inkscape:pageshadow="2"
     inkscape:window-width="803"
     inkscape:window-height="608"
     id="namedview2932"
     showgrid="false"
     inkscape:zoom="0.45124283"
     inkscape:cx="270.85401"
     inkscape:cy="261.5"
     inkscape:window-x="381"
     inkscape:window-y="160"
     inkscape:window-maximized="0"
     inkscape:current-layer="svg2914" />
  <metadata
     id="metadata2916">
    <rdf:RDF>
      <cc:Work
         rdf:about="">
        <dc:title>Right Foot Print</dc:title>
        <dc:description />
        <dc:subject>
          <rdf:Bag>
            <rdf:li>symbol</rdf:li>
            <rdf:li>foot</rdf:li>
            <rdf:li>shape</rdf:li>
          </rdf:Bag>
        </dc:subject>
        <dc:publisher>
          <cc:Agent
             rdf:about="http://www.openclipart.org">
            <dc:title>Benji Park</dc:title>
          </cc:Agent>
        </dc:publisher>
        <dc:creator>
          <cc:Agent>
            <dc:title>Benji Park</dc:title>
          </cc:Agent>
        </dc:creator>
        <dc:rights>
          <cc:Agent>
            <dc:title>Benji Park</dc:title>
          </cc:Agent>
        </dc:rights>
        <dc:date />
        <dc:format>image/svg+xml</dc:format>
        <dc:type
           rdf:resource="http://purl.org/dc/dcmitype/StillImage" />
        <cc:license
           rdf:resource="http://web.resource.org/cc/PublicDomain" />
        <dc:language>en</dc:language>
      </cc:Work>
      <cc:License
         rdf:about="http://web.resource.org/cc/PublicDomain">
        <cc:permits
           rdf:resource="http://web.resource.org/cc/Reproduction" />
        <cc:permits
           rdf:resource="http://web.resource.org/cc/Distribution" />
        <cc:permits
           rdf:resource="http://web.resource.org/cc/DerivativeWorks" />
      </cc:License>
    </rdf:RDF>
  </metadata>
  <g
     transform="matrix(-0.88141954,0,0,0.88141954,481.38801,69.408032)"
     id="g2918">
    <path
       d="m 257.874,274.394 c 79.166,-8.333 65.869,-131.132 2.083,-164.583 -42.259,-22.162 -99.311,-21.194 -137.5,-6.25 C 50.02,131.906 30.791,168.144 20.374,238.978 9.957,309.812 44.86,497.182 128.707,518.144 c 75,18.75 103.944,-17.607 95.833,-52.083 -8.333,-35.417 -49.408,-81.295 -52.083,-112.5 -6.25,-72.917 85.417,-79.167 85.417,-79.167 z"
       id="path2920" />
    <path
       d="m 398.935,101.504 c -21.207,30.8 -61.446,39.899 -89.876,20.324 -28.431,-19.575 -34.287,-60.412 -13.08,-91.212 21.207,-30.8 61.445,-39.898 89.876,-20.323 28.429,19.575 34.286,60.412 13.08,91.211 z"
       id="path2922" />
    <path
       d="m 235.454,82.105 c -18.149,3.09 -35.288,-8.655 -38.282,-26.236 -2.995,-17.581 8.591,-44.006 26.739,-47.096 18.148,-3.092 35.288,8.655 38.282,26.236 2.994,17.581 -8.592,44.005 -26.739,47.096 z"
       id="path2924" />
    <path
       d="m 176.599,69.41 c -10.276,14.576 -25.334,17.381 -40.38,6.774 -15.046,-10.607 -18.585,-40.858 -8.309,-55.435 10.276,-14.575 25.333,-17.38 40.38,-6.773 15.046,10.607 18.585,40.858 8.309,55.434 z"
       id="path2926" />
    <path
       d="M 113.751,80.36 C 110.594,95.569 94.793,105.15 78.457,101.759 62.121,98.368 48.841,75.304 51.998,60.095 55.155,44.886 70.956,35.305 87.291,38.696 c 16.335,3.391 29.617,26.455 26.46,41.664 z"
       id="path2928" />
    <path
       d="m 47.389,102.138 c 9.291,13.857 7.525,31.324 -3.943,39.013 -11.468,7.688 -28.296,2.688 -37.587,-11.17 -9.29,-13.857 -7.524,-31.324 3.944,-39.012 11.468,-7.688 28.296,-2.688 37.586,11.169 z"
       id="path2930" />
  </g>
</svg>
